<?xml version="1.0" encoding="UTF-8" standalone="no"?>
<!DOCTYPE svg PUBLIC "-//W3C//DTD SVG 1.1//EN" "http://www.w3.org/Graphics/SVG/1.1/DTD/svg11.dtd">
<svg xmlns="http://www.w3.org/2000/svg" version="1.1" viewBox="0.00 0.00 72.00 95.00">
<path fill="#d9251c" d="
  M 65.42 42.13
  Q 66.94 43.12 68.35 43.21
  A 2.65 2.65 0.0 0 1 70.83 45.85
  L 70.83 60.65
  Q 70.83 61.22 70.46 61.65
  C 69.74 62.50 69.06 63.46 67.99 63.85
  C 66.99 64.21 65.89 65.09 65.71 66.20
  Q 65.58 67.01 65.06 67.59
  Q 64.71 67.98 64.79 68.49
  Q 64.87 69.09 65.39 69.40
  Q 65.79 69.63 65.80 70.09
  L 65.85 74.64
  Q 65.85 75.28 65.41 75.73
  Q 59.54 81.78 53.74 87.59
  Q 53.37 87.96 52.89 87.96
  Q 51.89 87.95 52.64 87.30
  Q 52.87 87.10 53.01 86.82
  Q 53.21 86.44 53.18 86.02
  C 53.02 83.86 54.01 82.19 54.17 80.05
  Q 55.26 66.12 46.94 54.01
  Q 42.17 47.06 36.59 40.14
  C 29.40 31.21 25.32 23.05 28.20 11.94
  C 28.61 10.38 29.62 9.62 30.13 8.24
  Q 30.42 7.45 30.93 6.83
  Q 34.16 2.88 38.14 0.70
  Q 38.63 0.43 38.66 0.99
  L 38.87 4.81
  Q 38.89 5.20 39.12 5.50
  Q 39.86 6.48 39.82 7.69
  Q 39.80 8.16 40.05 8.56
  C 41.28 10.58 42.40 13.10 44.03 14.76
  C 45.21 15.96 45.78 17.32 46.89 18.51
  Q 51.31 23.24 55.70 28.96
  Q 58.53 32.66 61.44 36.20
  Q 61.70 36.51 61.81 36.91
  Q 61.88 37.17 61.95 37.43
  Q 62.03 37.69 62.23 37.89
  Q 63.82 39.44 64.84 41.48
  Q 65.04 41.88 65.42 42.13
  Z"
/>
<path fill="#01913e" d="
  M 2.53 61.85
  Q 2.28 61.78 2.17 61.55
  Q 2.01 61.24 2.11 60.90
  Q 2.33 60.10 1.60 59.74
  A 0.73 0.73 0.0 0 1 1.20 59.03
  C 1.34 57.21 0.52 55.85 0.59 54.02
  Q 0.68 51.53 1.12 48.82
  Q 1.35 47.42 2.33 46.34
  C 3.70 44.84 4.18 42.89 6.26 42.14
  Q 6.73 41.98 7.07 41.61
  C 7.84 40.78 8.69 40.07 9.36 39.16
  Q 11.47 36.23 13.59 33.25
  C 15.02 31.23 16.10 28.90 17.75 27.11
  Q 20.06 24.60 18.99 27.83
  Q 18.47 29.42 17.43 31.84
  Q 16.85 33.19 16.70 34.53
  C 16.55 35.89 16.02 36.81 15.87 38.24
  Q 14.76 49.23 20.85 58.40
  C 24.91 64.52 30.04 70.63 32.38 77.78
  C 33.02 79.74 32.70 81.43 33.20 83.34
  C 33.84 85.78 32.70 87.91 32.90 90.37
  Q 32.94 90.97 32.35 90.90
  Q 31.70 90.81 31.18 91.22
  Q 30.83 91.49 30.44 91.29
  L 27.90 90.06
  A 0.47 0.47 0.0 0 1 27.69 89.85
  L 25.99 86.33
  Q 25.72 85.76 25.09 85.78
  Q 24.68 85.79 24.42 85.45
  Q 24.14 85.08 23.69 84.96
  Q 21.01 84.22 19.14 85.55
  Q 18.77 85.81 18.48 85.47
  Q 17.88 84.75 16.94 84.79
  Q 16.45 84.82 16.15 84.43
  Q 15.64 83.79 14.79 83.73
  Q 14.24 83.69 13.88 83.27
  L 7.57 75.75
  Q 7.11 75.20 7.13 74.48
  Q 7.16 73.69 6.52 73.29
  Q 5.96 72.95 6.41 72.48
  Q 6.55 72.35 6.75 72.37
  Q 6.97 72.39 7.00 72.18
  C 7.31 70.34 7.86 67.25 6.52 65.65
  Q 5.33 64.24 3.89 63.69
  Q 3.39 63.49 3.27 62.95
  L 3.17 62.55
  Q 3.05 62.01 2.53 61.85
  Z"
/>
<path fill="#d9251c" d="
  M 47.19 83.89
  Q 45.09 88.94 39.83 91.08
  Q 39.19 91.34 39.19 90.65
  C 39.21 87.24 39.66 82.95 38.77 79.68
  Q 38.35 78.09 37.96 76.54
  C 36.24 69.56 31.45 62.92 27.09 57.00
  Q 18.55 45.40 23.60 32.42
  Q 23.65 32.29 23.74 32.41
  Q 32.46 43.72 40.90 55.55
  C 45.55 62.08 50.19 71.55 48.36 79.59
  Q 47.98 81.24 47.70 83.04
  Q 47.67 83.24 47.58 83.42
  Q 47.48 83.62 47.31 83.74
  Q 47.23 83.80 47.19 83.89
  Z"
/>
</svg>
